<?xml version="1.0" encoding="utf-8"?>
<!-- Generator: Adobe Illustrator 18.1.1, SVG Export Plug-In . SVG Version: 6.00 Build 0)  -->
<!DOCTYPE svg PUBLIC "-//W3C//DTD SVG 1.1//EN" "http://www.w3.org/Graphics/SVG/1.1/DTD/svg11.dtd">
<svg version="1.1" id="Layer_1" xmlns="http://www.w3.org/2000/svg" xmlns:xlink="http://www.w3.org/1999/xlink" x="0px" y="0px"
	 width="38px" height="37.9px" viewBox="-375 277.2 38 37.9" enable-background="new -375 277.2 38 37.9" xml:space="preserve">
<g>
	<g id="_x23_1e3694ff">
		<path fill="#1E3694" d="M-375,294.7c0.8-8.1,7-15.4,15-17c10.9-2.8,22.6,6.2,23,17.4v2.1c-0.3,9.3-8.4,17.4-17.7,17.9h-2.3
			c-9.2-0.3-17.1-8.1-18-17.2V294.7 M-357.2,286.2c-1.7,1.4-1.6,3.8-1.9,5.8c-0.5,0-1.5,0-1.9,0c0,0.7,0,2,0,2.6c0.5,0,1.5,0,2.1,0
			c0,4.1,0,8.2,0,12.4c1.4,0,2.7,0,4.1,0c0-4.1,0-8.2,0-12.4c1.3,0,2.5,0,3.8,0c0-0.7,0-2,0-2.6c-1.3,0-2.6,0-3.9,0
			c0.2-1.1,0.2-2.1,0.5-3.2c0.9-2,3.2-0.7,4.8-0.5c0-0.7,0-2.1,0-2.8C-352.2,285.3-355,284.5-357.2,286.2z"/>
	</g>
	<g id="_x23_ffffffff">
		<path fill="#FFFFFF" d="M-357.2,286.2c2.1-1.6,4.9-0.9,7.4-0.7c0,0.7,0,2.1,0,2.8c-1.6-0.1-3.9-1.5-4.8,0.5
			c-0.3,1-0.3,2.1-0.5,3.2c1.3,0,2.6,0,3.9,0c0,0.7,0,2,0,2.6c-1.3,0-2.5,0-3.8,0c0,4.1,0,8.2,0,12.4c-1.4,0-2.7,0-4.1,0
			c0-4.1,0-8.2,0-12.4c-0.5,0-1.5,0-2.1,0c0-0.7,0-2,0-2.6c0.5,0,1.5,0,1.9,0C-358.8,290-358.9,287.6-357.2,286.2z"/>
	</g>
</g>
</svg>
